<?xml version="1.0" standalone="no"?>
<!DOCTYPE svg PUBLIC "-//W3C//DTD SVG 20010904//EN"
 "http://www.w3.org/TR/2001/REC-SVG-20010904/DTD/svg10.dtd">
<svg version="1.0" xmlns="http://www.w3.org/2000/svg"
 width="88.000000pt" height="86.000000pt" viewBox="0 0 88.000000 86.000000"
 preserveAspectRatio="xMidYMid meet">

<g transform="translate(0.000000,86.000000) scale(0.100000,-0.100000)"
fill="#000000" stroke="none">
<path d="M303 725 c-64 -45 -19 -195 58 -195 42 0 63 37 57 102 -4 42 -11 57
-37 80 -36 32 -48 34 -78 13z"/>
<path d="M544 729 c-51 -25 -75 -147 -36 -182 64 -58 159 55 122 144 -12 28
-38 50 -57 48 -4 0 -17 -5 -29 -10z"/>
<path d="M170 563 c-41 -16 -42 -90 -2 -132 55 -61 112 -46 112 30 0 60 -64
119 -110 102z"/>
<path d="M691 557 c-85 -44 -86 -182 -1 -162 67 15 107 125 58 159 -27 19 -27
19 -57 3z"/>
<path d="M400 503 c-25 -13 -43 -34 -61 -71 -14 -30 -38 -62 -53 -71 -56 -37
-72 -91 -34 -115 14 -9 25 -3 58 29 22 21 45 55 51 74 6 20 16 41 22 46 7 7 8
5 5 -5 -15 -45 -17 -56 -8 -70 12 -20 21 -8 30 39 5 27 3 42 -4 45 -6 2 0 5
14 5 16 1 36 -10 53 -29 16 -16 35 -30 43 -30 20 0 17 -16 -8 -40 -24 -22 -86
-27 -120 -9 -16 8 -22 8 -29 -2 -4 -7 -6 -16 -3 -20 2 -4 0 -10 -6 -14 -5 -3
-10 -20 -10 -36 0 -30 1 -31 40 -24 33 5 40 4 40 -9 0 -9 -12 -18 -27 -21 -55
-11 -77 -20 -72 -30 2 -5 11 -8 19 -6 8 2 71 5 140 5 140 1 167 10 190 65 20
49 5 100 -43 144 -23 21 -51 57 -62 80 -36 74 -102 102 -165 70z"/>
</g>
</svg>
